inDegrees=yes
name=ik_coleta2_trike_10hz_mov
DataType=double
version=3
OpenSimVersion=4.4-2022-07-23-0e9fedc
endheader
time	hip_flexion_r	knee_angle_r	hip_flexion_l	knee_angle_l	gearToGround_coord_0
30.00837397575378	92.7663945293945	-96.77535041163503	104.4805860369442	-78.45649693995132	-195.3273247839447
30.02038288116455	93.16956006120341	-97.34253264099149	104.0565301802218	-77.91029748618699	-196.5677217063536
30.02932000160217	93.53209278577651	-97.84360726755231	103.6479008221552	-77.38563017211845	-197.6724003867504
30.03432583808899	93.86851629016566	-98.30120654927975	103.2523024898082	-76.89069550160899	-198.6932915948029
30.03935980796814	94.18372734408112	-98.72359811518189	102.8628288718748	-76.47034748537487	-199.637984941657
30.04434490203857	94.49002746863162	-99.12807495593519	102.4895307565045	-75.91291283021445	-200.5484202718842
30.04831409454346	94.79817908027438	-99.52959068351342	102.1245404364848	-75.61871519247525	-201.4602937034785
30.05335378646851	95.13643260115136	-99.96382655585742	101.7442125438078	-75.16580353825967	-202.4504410553729
30.05733585357666	95.53845508917271	-100.4709983283849	101.2889563995823	-74.53035481172554	-203.6176666221933
30.09632802009583	96.06871651990576	-101.126090628934	100.6966832275453	-73.87231604824288	-205.1455060522358
30.11035418510437	96.75692383011925	-101.9528589145598	99.80315177768364	-72.97601632396382	-207.1005145644977
30.1163330078125	97.54840288912914	-102.8718627775586	99.05093906439799	-72.08002922635737	-209.3136465105191
30.12137794494629	98.31156102839496	-103.7267465254076	98.18134136117973	-71.15862697588715	-211.4247333331086
30.12634801864624	98.90831645141145	-104.374318740214	97.58307726994468	-70.4707555857877	-213.0536267825046
30.13134098052979	99.3165996273557	-104.8069905545443	97.13251161429358	-70.00856680545409	-214.1608621636115
30.13531994819641	99.52719755821749	-105.0269449333888	96.93435962026923	-69.75914589643112	-214.7293689490661
30.14137601852417	99.59764242410063	-105.1000282536254	96.85829960306789	-69.68778009678853	-214.917969142356
30.14631795883179	99.59764242410063	-105.1000282536254	96.85829960306789	-69.68778009678853	-214.917969142356
30.15635800361633	99.60052573256824	-105.102996700454	96.85718107726576	-69.6870617926002	-214.9199897086843
30.16532707214355	99.73725074738073	-105.2441281214636	96.71500908319685	-69.52372122212269	-215.2947148879659
30.17032790184021	99.95953952616892	-105.4716077922687	96.48353284701857	-69.25431856875265	-215.8914404178557
30.17436575889587	100.3523797568485	-105.8677199163548	96.05210794347339	-68.74651220120884	-216.9417227453494
30.18032002449036	100.9480491607286	-106.4541404536931	95.43267985794593	-68.2232881424104	-218.5229299079933
30.18836092948914	101.7168637593722	-107.1860422237778	94.68060521457106	-67.3441142484955	-220.5528027139479
30.19334697723389	102.5254904071857	-107.9259761196167	93.67863762913137	-66.21121721144837	-222.6707375692902
30.20032978057861	103.2551913953728	-108.5677497461357	93.10484519906672	-65.87997108714941	-224.5702398045171
30.2053759098053	103.8746003766693	-109.0934232485561	92.54856882423903	-65.33301620481545	-226.1778292885149
30.20933794975281	104.4280930437161	-109.5483925929022	92.06929524114659	-64.80158929252285	-227.6108593766872
30.21632719039917	105.0677150445953	-110.0570073366277	91.4171488316434	-64.25931170979946	-229.2621211456786
30.22336506843567	106.0127117962595	-110.7747346738968	90.60691515706834	-63.43251116313807	-231.6996938662767
30.22732090950012	107.458580017368	-111.7950685196544	89.00791162216548	-61.92538355963296	-235.4355242941145
30.23232197761536	109.3562955466149	-112.9896540089076	87.69369986844099	-60.9407241304335	-240.3833472782034
30.23632407188416	111.3476242360486	-114.0596898074513	85.99249839867947	-59.56524148502184	-245.6888665872814
30.24233889579773	113.0625493212286	-114.8190057105972	84.60473948281199	-58.81840931703256	-250.4190119999197
30.24632382392883	114.4223923866755	-115.302457089477	83.71928707242031	-58.38656207123659	-254.3306683390689
30.2513279914856	115.5633469064459	-115.6161679219474	82.90752290835806	-58.019845213653	-257.7665830455073
30.25835680961609	116.6060547036877	-115.8182653061704	82.12010625211396	-57.60232055870728	-261.0742125654687
30.26432704925537	117.5798515006399	-115.9210427003501	81.5249188204988	-57.67311871236323	-264.3530139181489
30.27233910560608	118.4621041631704	-115.9271873447345	80.94839513145722	-57.60969719321982	-267.5365612366224
30.27831792831421	119.2264497332225	-115.8492946772764	80.47177752773521	-57.70919493146999	-270.5167291606735
30.28432607650757	119.8861707027356	-115.7028789207657	80.05531474308079	-57.82559733820264	-273.3146748484406
30.28941297531128	120.4807526996797	-115.4887513260973	79.66974482448147	-57.98698074035098	-276.0854827114646
30.29431700706482	121.0482684188079	-115.1850971474435	79.23245800857819	-58.13522819319714	-279.0367852627159
30.3043360710144	121.60054935949	-114.7545496755592	78.79844986982184	-58.47672544281148	-282.3439581317728
30.30834698677063	122.0785175839317	-114.2044564447551	78.6544038631327	-59.37485831718374	-285.8044794693405
30.31332397460938	122.6755594131699	-113.9646887930757	78.4352427674656	-59.69628834545681	-288.5917017593533
30.31832003593445	122.8895628098383	-113.4669809984235	78.36571938580639	-60.25455408469558	-290.9670706585676
30.32831311225891	123.0161460591104	-113.0660400716497	78.33651718978007	-60.70451945778592	-292.7425051092833
30.33634090423584	123.1141799979375	-112.6411441163421	78.30224560968772	-61.17496340932713	-294.5212529905767
30.34334206581116	123.1986779669305	-112.0594305106937	78.3895233289855	-61.88229273626452	-296.8062384684353
30.34730887413025	123.2387160502264	-111.2732682832514	78.385030958958	-62.70500621567515	-299.6811546736821
30.35232710838318	123.1969223487186	-110.3249713808606	78.44984582746359	-63.7842537210036	-302.8976374328286
30.3573842048645	123.0595820470251	-109.2740358213066	78.9077661625039	-65.25792529285823	-306.215280420623
30.3643159866333	122.8338098881231	-108.1766776455929	78.86856751849869	-66.0925932640676	-309.4689591193709
30.36832094192505	122.5403378340359	-107.0830415898605	79.10476444182687	-67.38262489883326	-312.5419013310831
30.37235021591187	122.2137995993937	-106.0607969386324	79.64802933880588	-68.76934530842595	-315.2892925014613
30.3773410320282	121.9061327146578	-105.2035675667278	79.5809564869115	-69.31738937632971	-317.5161535956773
30.38130712509155	121.6530917093935	-104.550342716753	79.80356347909814	-69.98786835430032	-319.1717321759467
30.38532590866089	121.4580293141016	-104.071183733076	79.92114646742614	-70.50472233849989	-320.3660971337284
30.39234304428101	121.3094013060868	-103.7179815340337	80.06000661978447	-70.87387381877066	-321.235944785027
30.39830994606018	121.1908151372119	-103.442677009891	80.13735039284413	-71.27036877882415	-321.908101035829
30.40736889839172	121.0811482003587	-103.1927564237294	80.21515354976097	-71.42776220819486	-322.5143205344797
30.4133129119873	120.9602211285683	-102.9219715414649	80.29253070228661	-71.71762747886122	-323.1670500537972
30.41733121871948	120.8202727127723	-102.6143831534982	80.39365827353659	-72.04348611990238	-323.9030058719164
30.42536902427673	120.6706757214129	-102.2918847677807	80.50353907807018	-72.38300119232125	-324.6690956333381
30.43136715888977	120.5294672672019	-101.9927951903851	80.6006755680073	-72.70314179019162	-325.3743544340994
30.43839979171753	120.4115714110613	-101.7471091198868	80.69831989007596	-72.95456538021577	-325.9507558908668
30.44435596466064	120.3197898401042	-101.5580294558844	80.78365559785831	-73.15801898808539	-326.3917061914636
30.4543468952179	120.2409936606572	-101.3971320812111	81.00165838433442	-73.50048742704651	-326.7657919389353
30.46232008934021	120.1504124597131	-101.2138328567363	80.94423502794223	-73.5465770262815	-327.1905083092101
30.473384141922	120.0236644899351	-100.9600959676356	80.98139582920436	-73.78126511269004	-327.7757746631197
30.48738694190979	119.8506923331032	-100.6187565530687	81.0839100486523	-74.15564209963647	-328.5585094032348
30.49336385726929	119.6458701787539	-100.2212582683773	81.2389118930802	-74.55762386286742	-329.4645371886486
30.49733901023865	119.4420048325312	-99.83263498033148	81.37492071218885	-74.97630620099578	-330.3430266715423
30.5013279914856	119.2769669761552	-99.52250912482553	81.49115246171284	-75.30412374046421	-331.0405100886929
30.50535011291504	119.1723270630862	-99.32787585016611	81.58337367946703	-75.4877339171436	-331.4761588317355
30.51432299613953	119.119925909209	-99.23096371196577	81.61196560134252	-75.59066811197161	-331.6922514842694
30.51932096481323	119.0892223863936	-99.17433562403912	81.63400814267224	-75.64952398774668	-331.8192019874278
30.52635192871094	119.0555115688709	-99.11234912262351	81.66067553207878	-75.71291339549646	-331.9569038497131
30.53132605552673	119.0169879964422	-99.04166315054896	81.68690648210789	-75.78662066200758	-332.1142198982257
30.53532195091248	118.9763832372091	-98.96736491066108	81.71591877004137	-75.86400346262259	-332.2794216266788
30.54039287567139	118.9309995293019	-98.8845668589889	81.74696568070721	-75.95048965806046	-332.4632563789158
30.54438996315002	118.8734135633592	-98.77987597869183	81.78990415180309	-76.05830711647653	-332.695378634057
30.54831719398499	118.7954973329486	-98.63888110929152	81.92178498914602	-76.24776050768661	-333.0079366984041
30.55538392066956	118.6915755047847	-98.45193447228833	81.91920985499959	-76.39853141689009	-333.4208033771982
30.55934309959412	118.5616351691321	-98.21992613624997	82.02413241269066	-76.64038766441006	-333.9315717126668
30.5633111000061	118.4044583973434	-97.9417716701401	82.11575337795846	-76.9310938360005	-334.5418207132271
30.56731581687927	118.2128674446441	-97.60615873995602	82.24498187680612	-77.28651915391771	-335.2746692455605
30.5733859539032	117.9681946701129	-97.18297484280093	82.42791363023856	-77.71346784605674	-336.1945491316834
30.5813159942627	117.6356721102969	-96.61660494535705	82.66028635415402	-78.29872781397529	-337.4180197017211
30.58733797073364	117.1973907565508	-95.8843461559825	82.95883001683781	-79.07136826353737	-338.9873505332083
30.59335684776306	116.6984621936431	-95.06852113534016	83.34802401694895	-79.88986805342606	-340.7210997574617
30.601322889328	116.2246984121917	-94.30957218189978	83.92944218322442	-81.05542479396722	-342.3221405225066
30.60736203193665	115.8256380538245	-93.68109229620498	83.9562011329915	-81.42638734053213	-343.6395385651476
30.61232399940491	115.479964954543	-93.14405536977021	84.17421470825715	-81.87625558037139	-344.7602039121312
30.62932085990906	115.150342605899	-92.63790718723885	84.4112742621205	-82.3795481417058	-345.8123176902062
30.63532900810242	114.8133268915564	-92.12606753242517	84.65497998229743	-82.89125412325009	-346.8721963627559
30.64332103729248	114.4612759552095	-91.59716413386198	84.90577779388991	-83.42889627303093	-347.964149931099
30.65232396125793	114.0886108948631	-91.0434224083051	85.18177176481531	-83.97857528668266	-349.1034413781616
30.65838313102722	113.6958840890233	-90.466235607062	85.45568705400912	-84.57036036640183	-350.2868892036714
30.66631603240967	113.2986534871345	-89.88876741756312	85.74207783611513	-85.15478670010934	-351.4690539771226
30.67337203025818	112.9166998385463	-89.33917915743281	86.02211873732192	-85.69941629976594	-352.5909028461609
30.67732191085815	112.5556963509525	-88.82459905025084	86.28601478307478	-86.21348458578863	-353.6393980676397
30.68432402610779	112.2064860469589	-88.33114024529227	86.5435861647195	-86.7038366250186	-354.6432745106488
30.68936705589294	111.8558805986067	-87.83979255043532	86.807112227994	-87.18903903256496	-355.6415997372681
30.6933491230011	111.5009288218794	-87.34638384234717	87.06346041892621	-87.68455266458022	-356.6427628509774
30.69931411743164	111.1591479320444	-86.87493652163809	87.3588072718517	-88.1519034224133	-357.5991321104977
30.70536303520203	110.8566964973274	-86.46064281320747	87.54508475643757	-88.5610622293881	-358.4388829668241
